<?xml version="1.0" encoding="UTF-8"?>
<svg id="Objects" xmlns="http://www.w3.org/2000/svg" viewBox="0 0 1935 1981.59">
  <defs>
    <style>
      .cls-1 {
        stroke-width: 0px;
      }
    </style>
  </defs>
  <path class="text-red-200" d="M1841.91,1136.29c-63.68-214-205.45-513.55-519.22-725.31C988.9,185.69,532.25,105.08,84.48,54.12l65.11-26.28c9.4-3.25,41.24-18.81,37-26-4.24-7.19-59.68,8.79-69,12L10.97,48.18c-5.78,2.02-9.87,6.17-10.78,11.01-.91,4.84,1.49,9.71,6.3,12.9l49.11,30.75c2.82,1.84-3.39-.37,0,0,6.09.67,93.67,53.84,98,50,6.71-5.98-55.18-53.84-63-59l-11.2-11.36c441.97,50.32,892.19,129.64,1218.68,350,306.29,206.72,445.03,500.3,507.49,710.19,80.4,270.19,86.37,552.16,92.15,824.85.16,7.83,8.48,14.08,18.63,14.08.1,0,.21,0,.31,0,10.3-.13,18.5-6.64,18.34-14.55-5.81-274.16-11.82-557.65-93.09-830.76Z"/>
</svg>